<svg height="512pt" viewBox="0 0 511 512" width="512pt" xmlns="http://www.w3.org/2000/svg"><path d="m357.144531 151.125-221.695312 64.683594c-.425781-1.367188-1.023438-3.585938-1.792969-6.570313-3.925781-15.703125-10.75-51.03125 2.21875-71 14.679688-22.695312 23.039062-25.855469 68.351562-26.28125 7.425782-.085937 15.875-.085937 25.515626-.085937 22.1875 0 34.476562-3.667969 42.667968-8.789063 14.335938-8.703125 16.296875-21.246093 37.035156-25.085937h.082032c4.644531-.851563 9.359375-1.25 14.082031-1.195313 51.199219 0 33.535156 74.324219 33.535156 74.324219zm0 0" fill="#d44315"/><path d="m169.976562 304.9375s-.171874.085938-.597656.257812c-6.058594 2.902344-57.175781 28.601563-25.003906 69.972657 31.316406 40.269531 105.898438-15.625 117.84375-25.097657zm0 0" fill="#ff5722"/><path d="m399.640625 351.230469c-22.527344 74.667969-63.742187 90.539062-85.160156 81.835937-2.980469-1.203125-5.679688-3.003906-7.9375-5.289062-17.066407-17.578125 43.179687-74.328125 43.179687-74.328125l25.171875-1.109375zm0 0" fill="#d44315"/><path d="m494.277344 277.929688c34.132812 35.414062-51.203125 79.617187-170.667969 79.617187-3.328125 0-6.570313-.085937-9.8125-.257813 111.699219-3.410156 188.757813-45.394531 156.074219-79.359374 0 0 8.53125 0 8.53125-26.621094 0-25.601563-79.1875-100.4375-176.554688-105.902344 4.269532-.253906 8.707032-.339844 13.226563-.339844 102.402343 0 187.734375 79.703125 187.734375 106.242188 0 26.535156-8.53125 26.621094-8.53125 26.621094zm0 0" fill="#f17c00"/><path d="m332.824219 151.125-199.167969 58.113281c-3.925781-15.703125-10.75-51.03125 2.21875-71 14.679688-22.695312 23.039062-25.855469 68.351562-26.28125 7.425782-.085937 15.875-.085937 25.515626-.085937 22.1875 0 34.476562-3.667969 42.667968-8.789063 14.335938-8.703125 16.296875-21.246093 37.035156-25.085937h.082032c38.402344 9.386718 23.296875 73.128906 23.296875 73.128906zm0 0" fill="#ff5722"/><path d="m374.894531 352.339844c-15.617187 50.773437-39.851562 73.984375-60.414062 80.726562-2.980469-1.203125-5.679688-3.003906-7.9375-5.289062-17.066407-17.578125 43.179687-74.328125 43.179687-74.328125zm0 0" fill="#ff5722"/><path d="m469.871094 277.929688c32.683594 33.964843-44.375 75.949218-156.074219 79.359374-112.46875-4.09375-161.792969-79.359374-194.988281-79.359374-4.355469-.105469-8.679688.800781-12.628906 2.644531-20.308594 9.472656-20.566407 41.558593-64.171876 41.558593-2.957031.011719-5.886718-.570312-8.617187-1.707031-34.730469-14.503906-29.78125-118.269531-.769531-136.960937 2.753906-1.921875 6.027344-2.964844 9.386718-2.984375 30.550782 0 39.167969 31.65625 54.1875 43.261719 6.5 5.257812 15.664063 5.671874 22.613282 1.027343 32.597656-16.984375 88.660156-74.328125 183.039062-79.363281 97.367188 5.464844 176.554688 80.300781 176.554688 105.902344 0 26.621094-8.53125 26.621094-8.53125 26.621094zm0 0" fill="#ff9401"/><g fill="#00b8d0"><path d="m427.203125 34.132812c0 14.140626-11.460937 25.601563-25.597656 25.601563-14.140625 0-25.601563-11.460937-25.601563-25.601563 0-14.136718 11.460938-25.597656 25.601563-25.597656 14.136719 0 25.597656 11.460938 25.597656 25.597656zm0 0"/><path d="m486.9375 85.332031c0 9.425781-7.640625 17.066407-17.066406 17.066407-9.425782 0-17.066406-7.640626-17.066406-17.066407s7.640624-17.066406 17.066406-17.066406c9.425781 0 17.066406 7.640625 17.066406 17.066406zm0 0"/><path d="m60.269531 477.867188c0 14.136718-11.460937 25.597656-25.597656 25.597656-14.140625 0-25.601563-11.460938-25.601563-25.597656 0-14.140626 11.460938-25.601563 25.601563-25.601563 14.136719 0 25.597656 11.460937 25.597656 25.601563zm0 0"/><path d="m128.539062 452.265625c0 9.425781-7.644531 17.066406-17.070312 17.066406s-17.066406-7.640625-17.066406-17.066406 7.640625-17.066406 17.066406-17.066406 17.070312 7.640625 17.070312 17.066406zm0 0"/></g><path d="m450.074219 338.003906c-10.851563 3.914063-21.9375 7.136719-33.195313 9.644532-7.253906-10.667969-58.367187-100.695313 19.457032-166.484376 8.125 4.886719 15.960937 10.242188 23.464843 16.042969-11.261719 12.714844-60.5 75.007813-9.726562 140.796875zm0 0" fill="#cbd4d8"/><path d="m330.265625 304.382812c-23.210937 14.507813-23.46875 41.472657-22.527344 52.652344-17.902343-.980468-35.628906-4.046875-52.824219-9.132812h-.082031c-3.671875-6.738282-25.089843-49.664063-25.089843-121.941406 0 0 5.546874-43.519532-1.28125-63.058594-.144532-.585938-.34375-1.15625-.597657-1.707032.515625-.171874.941407-.34375 1.453125-.511718 16.535156-6.242188 33.703125-10.648438 51.199219-13.140625 4.179687 11.6875 15.105469 36.691406 34.558594 43.347656 9.527343 2.242187 17.25 9.195313 20.480469 18.433594-11.769532-5.804688-25.496094-6.148438-37.546876-.941407-46.589843 15.957032-50.773437 111.789063 32.257813 96zm0 0" fill="#cbd4d8"/><path d="m128.28125 279.722656h-.085938c-3-1.136718-6.175781-1.746094-9.386718-1.792968-9.152344-.199219-17.855469 3.945312-23.464844 11.179687 9.640625-34.046875 5.714844-55.039063 2.644531-64.085937 6.386719 4.011718 14.53125 3.910156 20.820313-.253907 3.074218-1.621093 6.402344-3.585937 9.898437-5.804687 3.585938 12.714844 9.300781 45.226562-.425781 60.757812zm0 0" fill="#cbd4d8"/><path d="m280.515625 147.542969c-.171875 0-1.707031 1.089843-1.894531 1.089843-17.328125 2.308594-34.351563 6.519532-50.757813 12.5625-1.191406-24.492187-22.613281-47.53125-23.636719-49.238281 7.425782-.085937 15.875-.085937 25.515626-.085937 22.1875 0 34.476562-3.667969 42.667968-8.789063 5.363282 14.207031 8.113282 29.273438 8.105469 44.460938zm0 0" fill="#cbd4d8"/><path d="m478.402344 247.464844c0 9.425781-7.640625 17.070312-17.066406 17.070312-9.425782 0-17.066407-7.644531-17.066407-17.070312 0-9.425782 7.640625-17.066406 17.066407-17.066406 9.425781 0 17.066406 7.640624 17.066406 17.066406zm0 0" fill="#fff"/><path d="m461.335938 238.933594c-.015626 4.007812-2.824219 7.460937-6.742188 8.304687-3.917969.839844-7.894531-1.160156-9.554688-4.804687 1.695313-5.367188 5.898438-9.570313 11.261719-11.265625 3.058594 1.375 5.03125 4.414062 5.035157 7.765625zm0 0" fill="#fff"/><path d="m89.8125 203.324219c-9.558594-13.246094-22.636719-31.367188-47.835938-31.367188-27.207031 0-41.4375 42.511719-41.4375 84.503907-.410156 16.707031 2.515626 33.328124 8.601563 48.894531 7.183594 16.34375 18.839844 25.335937 32.835937 25.335937 21.960938.96875 42.710938-10.101562 54.132813-28.882812 1.332031-1.769532 2.5625-3.328125 3.730469-4.796875 1.117187-.792969 2.027344-1.847657 2.644531-3.074219 3.9375-4.925781 9.960937-7.710938 16.265625-7.515625 8.421875 0 20.761719 8.046875 35.078125 17.917969-13.175781 7.835937-22.96875 20.292968-27.476563 34.945312-2.914062 14.703125 1.257813 29.921875 11.265626 41.078125 7.5 9.8125 18.738281 16.070313 31.027343 17.289063 2.289063.265625 4.589844.398437 6.894531.394531 34.652344 0 75.195313-28.503906 88.839844-38.894531 12.691406 3.027344 25.605469 5.050781 38.613282 6.046875 1.703124.863281 3.660156 1.089843 5.511718.632812.121094 0 .207032-.117187.324219-.152343 4.8125.273437 9.738281.410156 14.773437.410156 1.484376 0 2.933594-.070313 4.402344-.078125-14.25 14.609375-32.425781 36.335937-33.050781 52.734375-.351563 5.53125 1.632813 10.953125 5.472656 14.953125 6.820313 6.671875 16.058594 10.285156 25.597657 10.007812 3.867187-.011719 7.71875-.492187 11.46875-1.425781 13.800781-3.359375 47.566406-18.378906 68.695312-83.777344 3.890625-.753906 7.765625-1.519531 11.5-2.367187.796875-.074219 1.574219-.265625 2.3125-.570313 10.53125-2.4375 20.914062-5.480468 31.097656-9.113281 1.28125-.148437 2.511719-.585937 3.601563-1.28125 27.382812-10.367187 46.710937-23.890625 53.1875-39.15625 3.894531-8.78125 3.132812-18.925781-2.023438-27.027344 4.226563-8.585937 6.101563-18.140625 5.4375-27.691406 0-26.152344-61.714843-88.191406-144.128906-108.320313 2.109375-12.476562 5.027344-41.480468-9.191406-59.570312-8.378907-10.269531-21.171875-15.898438-34.40625-15.140625-27.390625 0-36.691407 9.703125-44.875 18.261719-3.160157 3.601562-6.800781 6.742187-10.820313 9.34375-11.8125 5.910156-25.003906 8.5-38.171875 7.492187-9.675781 0-18.15625 0-25.597656.085938-45.585937.445312-58.027344 3.277343-75.417969 30.125-14.507812 22.320312-7.988281 59.125-3.414062 77.378906-3.753906 2.441406-7.269532 4.589844-10.425782 6.230469-9.859374 5.117187-13.78125 1.730468-25.039062-13.859375zm-47.835938 110.300781c-7.007812 0-12.800781-5.121094-17.214843-15.136719-5.132813-13.402343-7.566407-27.683593-7.15625-42.027343 0-38.597657 12.867187-67.414063 24.371093-67.414063 16.460938 0 24.976563 11.800781 33.996094 24.285156 2.789063 3.992188 5.808594 7.816407 9.042969 11.453125-.40625 2.476563.277344 5.007813 1.878906 6.9375.121094.136719 11.347657 14.0625.640625 53.425782-1.765625 2.117187-3.414062 4.269531-5.027344 6.410156-8.90625 11.84375-16.605468 22.066406-40.53125 22.066406zm65.988282-42.769531c1.992187-11.40625 1.734375-23.097657-.761719-34.40625 5.429687-.058594 10.761719-1.472657 15.503906-4.113281l.292969-.167969c3.761719 14.417969 4.8125 29.363281.1875 37.546875-1.460938-.230469-2.933594-.359375-4.414062-.386719-3.65625.007813-7.292969.523437-10.808594 1.527344zm42.75-56.515625c22.175781-16.242188 45.996094-30.109375 71.066406-41.378906.578125-.054688 1.152344-.171876 1.707031-.347657 2.226563 17.238281 1.503907 34.730469-2.132812 51.726563-.109375.535156-.164063 1.078125-.164063 1.621094-.542968 36.664062 5.527344 73.125 17.921875 107.632812-25.382812-10.511719-49.378906-24.09375-71.449219-40.449219-8.992187-6.550781-18.398437-12.507812-28.160156-17.832031 7.210938-16.105469 2.855469-38.113281-1.136718-51.644531 1.960937-.714844 3.582031-2.132813 4.558593-3.976563 2.53125-1.714844 5.128907-3.496094 7.796875-5.351562zm121.976562-56.867188c.015625.3125.050782.625.101563.929688 6.121093 16.988281 18.671875 30.894531 34.945312 38.71875-4.257812.714844-8.449219 1.789062-12.527343 3.207031-20.261719 7.941406-34.675782 26.179687-37.71875 47.726563-4.210938 15.726562-.933594 32.511718 8.886718 45.496093 9.820313 12.984375 25.082032 20.710938 41.359375 20.9375-6.992187 9.636719-10.753906 21.238281-10.753906 33.144531-12.226563-1.292968-24.332031-3.574218-36.1875-6.828124-15.71875-35.914063-23.40625-74.824219-22.539063-114.015626 1.304688-6.917968 7.058594-40.550781 1.128907-60.585937 10.875-3.714844 22.003906-6.628906 33.304687-8.730469zm-102.035156 223.257813c-7.746094-.714844-14.835938-4.648438-19.539062-10.84375-6.753907-7.125-9.765626-17.007813-8.132813-26.683594 3.328125-14.054687 19.054687-24.296875 26.230469-28.316406 22.847656 16.117187 47.8125 29 74.179687 38.289062-17.816406 12.128907-49.152343 30.378907-72.738281 27.554688zm143.4375-31.9375c-.699219-15.410157 7.949219-29.722657 21.914062-36.269531.453126-.292969.878907-.632813 1.261719-1.015626 8.035157-1.882812 15.917969-4.363281 23.585938-7.414062 4.382812-1.738281 6.53125-6.699219 4.792969-11.082031-1.738282-4.382813-6.699219-6.527344-11.082032-4.789063-30.445312 12.046875-54.867187 12.449219-68.734375 1.101563-10.523437-9.691407-14.945312-24.335938-11.535156-38.230469 2.074219-15.402344 12.132813-28.558594 26.453125-34.601562 9.996094-4.460938 21.460938-4.222657 31.265625.648437 9.078125 6.722656 15.253906 16.652344 17.277344 27.765625.492187 3.007812 2.554687 5.527344 5.40625 6.605469 2.851562 1.078125 6.0625.550781 8.421875-1.378907 2.359375-1.929687 3.511718-4.972656 3.019531-7.980468-2.378906-12.480469-8.304687-24.011719-17.066406-33.207032 0-.175781.101562-.332031.101562-.519531 0-4.480469-3.054687-15.929687-31.359375-25.597656-12.753906-5.039063-22.890625-15.082031-28.050781-27.785156 8.394531-.9375 16.832031-1.417969 25.277344-1.441407 37.304687.496094 73.886719 10.363282 106.382812 28.6875-55.609375 52.378907-40.300781 120.046876-18.191406 159.589844-26.273437 4.867188-52.941406 7.269532-79.660156 7.167969-3.234375-.035156-6.347657-.136719-9.480469-.253906zm134.621094-149.207031c-14.8125 17.757812-52.050782 72.386718-12.132813 134.066406-4.976562 1.554687-10.292969 2.996094-15.8125 4.371094-12.289062-20.480469-47.324219-91.238282 16.035157-146.59375 4.164062 2.6875 8.132812 5.390624 11.910156 8.15625zm-115.25 226.132812c-7.15625 2.355469-15.019532.878906-20.839844-3.90625-.246094-.257812-.707031-.734375-.636719-2.398438.460938-12.3125 24.171875-38.707031 41.574219-54.316406 11.519531-.742187 22.738281-1.867187 33.535156-3.414062-18.945312 51.621094-45.484375 62.054687-53.632812 64.054687zm160.777344-174.394531c.59375 6.3125-.378907 12.671875-2.84375 18.515625-2.734376.96875-4.789063 3.261718-5.457032 6.085937-.664062 2.824219.148438 5.796875 2.164063 7.882813 4.792969 3.617187 6.480469 10.042968 4.089843 15.550781-4.15625 9.777344-18.023437 19.855469-39.058593 28.371094-38.339844-55.160157-3.507813-103.371094 8.953125-117.691407 20.28125 17.210938 32.152344 33.621094 32.152344 41.285157zm-203.222657-152.996094c7.230469-7.542969 12.449219-12.996094 32.554688-12.996094 7.972656-.667969 15.777343 2.539063 20.976562 8.621094 9.179688 11.65625 7.910157 33.464844 5.914063 45.609375-11.703125-1.984375-23.550782-3-35.421875-3.027344-8.667969.019532-17.328125.480469-25.949219 1.378906-.707031-10.816406-2.84375-21.492187-6.351562-31.75 2.917968-2.4375 5.683593-5.054687 8.277343-7.835937zm-61.3125 22.101563c12.878907.457031 25.734375-1.414063 37.949219-5.527344 2.484375 8.21875 3.984375 16.703125 4.460938 25.273437-14.824219 2.574219-29.390626 6.480469-43.519532 11.667969-1.941406-10.882812-5.363281-21.449219-10.171875-31.402344h11.28125zm-86.664062 22.433593c11.949219-18.378906 16.820312-21.664062 56.320312-22.277343 6.652344 11.660156 11.039063 24.476562 12.9375 37.765624-25.09375 11.59375-48.972656 25.652344-71.289062 41.96875l-.535157.367188c-4.5-20.789062-5.90625-44.84375 2.566407-57.824219zm0 0"/><path d="m469.871094 247.226562c0-4.84375-3.820313-8.769531-8.535156-8.769531-4.710938 0-8.53125 3.925781-8.53125 8.769531 0 4.847657 3.820312 8.773438 8.53125 8.773438 4.714843 0 8.535156-3.925781 8.535156-8.773438zm0 0"/><path d="m401.605469 0c-18.851563 0-34.136719 15.28125-34.136719 34.132812 0 18.851563 15.285156 34.132813 34.136719 34.132813 18.851562 0 34.132812-15.28125 34.132812-34.132813 0-9.050781-3.597656-17.734374-10-24.136718-6.398437-6.398438-15.082031-9.996094-24.132812-9.996094zm0 51.199219c-9.425781 0-17.066407-7.640625-17.066407-17.066407 0-9.425781 7.640626-17.066406 17.066407-17.066406s17.066406 7.640625 17.066406 17.066406c0 4.527344-1.800781 8.867188-5 12.070313-3.199219 3.199219-7.542969 4.996094-12.066406 4.996094zm0 0"/><path d="m495.46875 85.332031c0-14.136719-11.460938-25.597656-25.597656-25.597656-14.140625 0-25.601563 11.460937-25.601563 25.597656 0 14.140625 11.460938 25.601563 25.601563 25.601563 14.136718 0 25.597656-11.460938 25.597656-25.601563zm-34.132812 0c0-4.710937 3.820312-8.53125 8.535156-8.53125 4.710937 0 8.53125 3.820313 8.53125 8.53125 0 4.714844-3.820313 8.535157-8.53125 8.535157-4.714844 0-8.535156-3.820313-8.535156-8.535157zm0 0"/><path d="m425.589844 111.105469c-.566406.078125-1.117188.25-1.628906.511719-.523438.171874-1.015626.429687-1.449219.765624-.457031.300782-.886719.644532-1.28125 1.023438-1.617188 1.605469-2.523438 3.785156-2.523438 6.058594 0 2.277344.90625 4.457031 2.523438 6.058594.394531.382812.824219.726562 1.28125 1.027343.433593.335938.925781.59375 1.449219.765625.511718.261719 1.0625.433594 1.628906.511719.535156.101563 1.074218.15625 1.613281.171875 3.46875.019531 6.601563-2.058594 7.929687-5.261719 1.332032-3.199219.589844-6.890625-1.871093-9.332031-2.039063-1.949219-4.890625-2.804688-7.671875-2.300781zm0 0"/><path d="m34.671875 512c18.851563 0 34.132813-15.28125 34.132813-34.132812 0-18.851563-15.28125-34.132813-34.132813-34.132813s-34.132813 15.28125-34.132813 34.132813c0 18.851562 15.28125 34.132812 34.132813 34.132812zm0-51.199219c9.425781 0 17.066406 7.640625 17.066406 17.066407 0 9.425781-7.640625 17.066406-17.066406 17.066406s-17.066406-7.640625-17.066406-17.066406c0-9.425782 7.640625-17.066407 17.066406-17.066407zm0 0"/><path d="m85.871094 452.265625c0 14.140625 11.460937 25.601563 25.597656 25.601563 14.140625 0 25.601562-11.460938 25.601562-25.601563 0-14.136719-11.460937-25.597656-25.601562-25.597656-14.136719 0-25.597656 11.460937-25.597656 25.597656zm25.597656-8.53125c4.714844 0 8.535156 3.820313 8.535156 8.53125 0 4.714844-3.820312 8.535156-8.535156 8.535156-4.710938 0-8.53125-3.820312-8.53125-8.535156 0-4.710937 3.820312-8.53125 8.53125-8.53125zm0 0"/><path d="m111.554688 409.601562c4.730468-.023437 8.546874-3.871093 8.535156-8.597656-.011719-4.730468-3.847656-8.554687-8.578125-8.554687-4.726563 0-8.5625 3.824219-8.574219 8.554687-.011719 4.726563 3.804688 8.574219 8.53125 8.597656zm0 0"/></svg>